<svg width="40" height="40" viewBox="0 0 40 40" fill="none" xmlns="http://www.w3.org/2000/svg">
<path d="M20 13L11 22L13.85 24.8L20 18.65L26.15 24.8L29 22L20 13ZM20 1.74846e-06C22.7667 1.50659e-06 25.3667 0.525003 27.8 1.575C30.2333 2.625 32.35 4.05 34.15 5.85C35.95 7.65 37.375 9.76667 38.425 12.2C39.475 14.6333 40 17.2333 40 20C40 22.7667 39.475 25.3667 38.425 27.8C37.375 30.2333 35.95 32.35 34.15 34.15C32.35 35.95 30.2333 37.375 27.8 38.425C25.3667 39.475 22.7667 40 20 40C17.2333 40 14.6333 39.475 12.2 38.425C9.76667 37.375 7.65 35.95 5.85 34.15C4.05 32.35 2.625 30.2333 1.575 27.8C0.525 25.3667 -1.50659e-06 22.7667 -1.74846e-06 20C-1.99033e-06 17.2333 0.524999 14.6333 1.575 12.2C2.625 9.76667 4.05 7.65 5.85 5.85C7.64999 4.05 9.76666 2.625 12.2 1.575C14.6333 0.525004 17.2333 1.99033e-06 20 1.74846e-06Z" fill="#242934"/>
</svg>
