<svg width="172" height="51" viewBox="0 0 172 51" fill="none" xmlns="http://www.w3.org/2000/svg">
<path d="M103.88 47.287H102.81V33.9177H103.88V35.5418C104.692 34.4327 105.959 33.7593 107.405 33.7593C108.653 33.7593 109.703 34.195 110.554 35.0863C111.406 35.9578 111.822 37.0471 111.822 38.3741C111.822 39.7012 111.406 40.7905 110.554 41.6818C109.703 42.5533 108.653 42.989 107.405 42.989C105.959 42.989 104.692 42.3156 103.88 41.2065V47.287ZM109.722 35.8587C109.069 35.1853 108.277 34.8486 107.306 34.8486C106.336 34.8486 105.543 35.1853 104.89 35.8587C104.236 36.5322 103.919 37.364 103.919 38.3741C103.919 39.3843 104.236 40.2161 104.89 40.8896C105.543 41.563 106.336 41.8997 107.306 41.8997C108.277 41.8997 109.069 41.563 109.722 40.8896C110.376 40.2161 110.693 39.3843 110.693 38.3741C110.693 37.364 110.376 36.5322 109.722 35.8587Z" fill="white"/>
<path d="M91.8803 39.4041V33.9177H92.9697V39.1268C92.9697 39.9388 93.2272 40.6123 93.7619 41.147C94.2967 41.6818 94.9701 41.9393 95.7624 41.9393C96.6537 41.9393 97.4063 41.662 98.0005 41.1272C98.6145 40.5726 98.9116 39.8992 98.9116 39.0872V33.9177H100.001V42.8306H98.9116V41.1272C98.2184 42.375 97.0696 42.989 95.5049 42.989C94.4552 42.989 93.6035 42.6523 92.9103 41.9591C92.217 41.2659 91.8803 40.4142 91.8803 39.4041Z" fill="white"/>
<path d="M85.0719 33.7593C86.3791 33.7593 87.4684 34.195 88.3597 35.0863C89.251 35.9578 89.6867 37.0471 89.6867 38.3741C89.6867 39.7012 89.251 40.7905 88.3597 41.6818C87.4684 42.5533 86.3791 42.989 85.0719 42.989C83.7448 42.989 82.6555 42.5533 81.7642 41.6818C80.8729 40.7905 80.4372 39.7012 80.4372 38.3741C80.4372 37.0471 80.8729 35.9578 81.7642 35.0863C82.6555 34.195 83.7448 33.7593 85.0719 33.7593ZM85.0521 41.8997C86.0622 41.8997 86.8941 41.563 87.5477 40.8895C88.2013 40.2161 88.538 39.3843 88.538 38.3741C88.538 37.364 88.2013 36.5322 87.5477 35.8587C86.8941 35.1853 86.0622 34.8486 85.0521 34.8486C84.0617 34.8486 83.2299 35.1853 82.5763 35.8587C81.9227 36.5322 81.586 37.364 81.586 38.3741C81.586 39.3843 81.9227 40.2161 82.5763 40.8895C83.2299 41.563 84.0617 41.8997 85.0521 41.8997Z" fill="white"/>
<path d="M75.8533 37.7205V42.8306H74.7639V33.9177H75.8533V35.6409C76.5465 34.3931 77.6754 33.7593 79.2599 33.7593H79.5174V34.9675C79.359 34.908 79.1807 34.8882 78.9827 34.8882C78.0914 34.8882 77.3585 35.1655 76.7445 35.7003C76.1504 36.2351 75.8533 36.9085 75.8533 37.7205Z" fill="white"/>
<path d="M65.597 29.3027C68.1917 29.3027 70.41 30.5505 71.5786 32.5906L70.4496 33.0461C69.4791 31.4418 67.6767 30.4515 65.597 30.4515C63.9531 30.4515 62.5865 30.9863 61.4971 32.0756C60.4078 33.165 59.8532 34.5118 59.8532 36.1359C59.8532 37.76 60.388 39.1267 61.4575 40.216C62.5271 41.3054 63.8343 41.8401 65.399 41.8401C66.825 41.8401 68.053 41.3846 69.1028 40.4933C70.1525 39.5822 70.7467 38.4334 70.9051 37.0272H64.8642V35.8982H72.2322V36.3934C72.1727 38.275 71.4993 39.8397 70.2119 41.1073C68.9245 42.3749 67.3202 43.0087 65.4188 43.0087C63.4976 43.0087 61.8735 42.3551 60.5861 41.0479C59.2986 39.7209 58.645 38.0967 58.645 36.1359C58.645 34.1751 59.2986 32.551 60.6257 31.2636C61.9527 29.9563 63.5966 29.3027 65.597 29.3027Z" fill="white"/>
<path d="M171.912 19.1069H164.54C164.87 20.1413 165.794 20.8455 166.961 20.8455C167.775 20.8455 168.413 20.5374 168.919 19.9432L171.67 20.5814C170.79 22.2319 169.029 23.2662 166.917 23.2662C165.376 23.2662 164.1 22.7821 163.065 21.7918C162.031 20.8015 161.525 19.5471 161.525 18.0726C161.525 16.5981 162.031 15.3437 163.021 14.3534C164.034 13.3631 165.288 12.8569 166.762 12.8569C168.237 12.8569 169.491 13.3631 170.482 14.3534C171.494 15.3437 172 16.5981 172 18.0726C172 18.4687 171.978 18.8208 171.912 19.1069ZM164.54 16.9722H169.095C168.765 15.9819 167.841 15.2997 166.784 15.2997C165.794 15.2997 164.87 15.9819 164.54 16.9722Z" fill="white"/>
<path d="M160.692 16.268L157.809 17.1263C157.478 16.246 156.642 15.6738 155.674 15.6738C154.375 15.6738 153.363 16.7302 153.363 18.0506C153.363 19.393 154.375 20.4494 155.674 20.4494C156.642 20.4494 157.478 19.8992 157.809 19.0189L160.692 19.8552C159.921 21.9018 158.029 23.2662 155.674 23.2662C154.155 23.2662 152.901 22.7821 151.889 21.7918C150.898 20.8015 150.392 19.5471 150.392 18.0726C150.392 16.5981 150.898 15.3437 151.889 14.3534C152.901 13.3631 154.155 12.8569 155.674 12.8569C157.985 12.8569 159.921 14.2214 160.692 16.268Z" fill="white"/>
<path d="M149.048 23.0242H146.187V13.121H149.048V23.0242ZM146.341 11.2064C146.011 10.8763 145.857 10.4362 145.857 9.92999C145.857 9.42383 146.011 9.0057 146.341 8.67559C146.671 8.34549 147.111 8.16943 147.618 8.16943C148.124 8.16943 148.542 8.34549 148.872 8.67559C149.202 9.0057 149.378 9.42383 149.378 9.92999C149.378 10.4362 149.202 10.8763 148.872 11.2064C148.542 11.5365 148.124 11.6906 147.618 11.6906C147.111 11.6906 146.671 11.5365 146.341 11.2064Z" fill="white"/>
<path d="M138.505 23.0242L134.544 13.1211H137.493L139.892 19.4811L142.269 13.1211H145.217L141.256 23.0242H138.505Z" fill="white"/>
<path d="M131.124 13.121V14.1553C131.763 13.2971 132.665 12.8569 133.831 12.8569C133.985 12.8569 134.095 12.8569 134.161 12.8789V15.9159C133.875 15.7399 133.523 15.6518 133.127 15.6518C131.983 15.6518 131.124 16.5101 131.124 17.6765V23.0242H128.263V13.121H131.124Z" fill="white"/>
<path d="M126.931 19.1069H119.559C119.889 20.1413 120.813 20.8455 121.979 20.8455C122.794 20.8455 123.432 20.5374 123.938 19.9432L126.689 20.5814C125.809 22.2319 124.048 23.2662 121.935 23.2662C120.395 23.2662 119.118 22.7821 118.084 21.7918C117.05 20.8015 116.544 19.5471 116.544 18.0726C116.544 16.5981 117.05 15.3437 118.04 14.3534C119.052 13.3631 120.307 12.8569 121.781 12.8569C123.256 12.8569 124.51 13.3631 125.5 14.3534C126.513 15.3437 127.019 16.5981 127.019 18.0726C127.019 18.4687 126.997 18.8208 126.931 19.1069ZM119.559 16.9722H124.114C123.784 15.9819 122.86 15.2997 121.803 15.2997C120.813 15.2997 119.889 15.9819 119.559 16.9722Z" fill="white"/>
<path d="M114.91 11.3604L111.807 12.1086C111.609 11.3824 110.707 10.7882 109.628 10.7882C108.506 10.7882 107.648 11.3824 107.648 12.1966C107.648 12.7028 108.11 13.1429 109.012 13.4951C109.342 13.6271 110.068 13.8472 111.191 14.1773C112.093 14.4414 112.599 14.5954 113.458 15.1016C114.69 15.7398 115.416 16.7741 115.504 18.5787C115.504 20.0091 114.998 21.1535 113.964 22.0118C112.929 22.87 111.609 23.2882 109.98 23.2882C108.484 23.2882 107.208 22.9361 106.129 22.2318C105.073 21.5276 104.391 20.6253 104.083 19.525L107.23 18.7547C107.472 19.657 108.55 20.3832 109.98 20.3832C111.323 20.3832 112.379 19.745 112.379 18.8648C112.489 18.4026 111.917 17.9625 111.543 17.7424C111.433 17.6764 111.235 17.5884 110.949 17.4783C110.663 17.3683 110.487 17.3023 110.377 17.2803L109.76 17.0822L108.462 16.6861L107.296 16.2239C106.789 16.0259 106.415 15.8058 106.151 15.6077C105.315 14.9915 104.369 13.9132 104.501 12.4167C104.501 11.0743 104.963 9.99594 105.909 9.15967C106.855 8.32341 108.088 7.90527 109.584 7.90527C110.927 7.90527 112.071 8.23538 113.039 8.89559C114.03 9.53379 114.646 10.3701 114.91 11.3604Z" fill="white"/>
<path d="M102.584 23.0242H99.723V13.121H102.584V23.0242ZM99.8771 11.2064C99.547 10.8763 99.3929 10.4362 99.3929 9.92999C99.3929 9.42383 99.547 9.0057 99.8771 8.67559C100.207 8.34549 100.647 8.16943 101.153 8.16943C101.66 8.16943 102.078 8.34549 102.408 8.67559C102.738 9.0057 102.914 9.42383 102.914 9.92999C102.914 10.4362 102.738 10.8763 102.408 11.2064C102.078 11.5365 101.66 11.6906 101.153 11.6906C100.647 11.6906 100.207 11.5365 99.8771 11.2064Z" fill="white"/>
<path d="M91.9063 15.6079V13.1212H93.2707V11.2065H96.1096V13.1212H98.4203V15.6079H96.1096V19.3051C96.1096 19.8993 96.5718 20.3395 97.1879 20.3395H98.4203V23.0243H96.7258C95.7575 23.0243 94.9432 22.7162 94.261 22.122C93.6008 21.5278 93.2707 20.7796 93.2707 19.8773V15.6079H91.9063Z" fill="white"/>
<path d="M90.9144 23.0242H88.0535V7.06909H90.9144V23.0242Z" fill="white"/>
<path d="M77.0285 19.4811V13.1211H79.8894V18.7109C79.8894 19.7892 80.6596 20.6255 81.694 20.6255C82.7283 20.6255 83.5206 19.7892 83.5206 18.7109V13.1211H86.3815V23.0242H83.5206V22.0119C82.8383 22.8482 81.9361 23.2663 80.8137 23.2663C79.7354 23.2663 78.8331 22.9142 78.1068 22.188C77.3806 21.4617 77.0285 20.5595 77.0285 19.4811Z" fill="white"/>
<path d="M61.7197 23.0242H58.6167V8.16943H61.7197L66.8473 17.2363L71.9969 8.16943H75.0999V23.0242H71.9969V14.0013L67.8816 21.3956H65.813L61.7197 14.0453V23.0242Z" fill="white"/>
<path d="M0.794178 33.3271C0.794178 26.8797 0.770657 20.5879 0.833416 14.2968C0.839194 13.7177 1.23659 12.8808 1.71957 12.6068C8.67752 8.65986 15.6743 4.77677 22.6938 0.933389C23.0693 0.727745 23.8173 0.857069 24.2432 1.0882C29.9496 4.18549 35.631 7.32613 41.3146 10.4627C42.4236 11.0747 43.4672 11.8251 44.6306 12.3093C45.6264 12.7238 45.9298 13.2477 45.9226 14.2893C45.871 21.7766 45.8756 29.2644 45.9191 36.7518C45.9246 37.7071 45.6218 38.2504 44.773 38.7166C37.9439 42.4677 31.1465 46.2731 24.3026 49.9984C23.8325 50.2544 22.9439 50.2111 22.4558 49.9479C16.7401 46.867 11.0623 43.7199 5.37857 40.5833C4.26959 39.9713 3.23441 39.1918 2.06231 38.7411C0.931519 38.3062 0.703567 37.6379 0.777893 36.6016C0.852121 35.5666 0.794178 34.5228 0.794178 33.3271ZM40.4714 18.459C40.056 18.6934 39.6665 19.0022 39.2204 19.1489C37.5425 19.7007 37.118 20.7825 37.2042 22.4621C37.3666 25.6255 37.2044 28.8034 37.2789 31.973C37.3019 32.9487 36.9347 33.4486 36.1008 33.8941C32.9213 35.5926 29.7647 37.3323 26.6281 39.1042C26.187 39.3534 25.6409 39.8412 25.5976 40.2624C25.4636 41.5687 25.5486 42.8962 25.5486 44.4923C30.8694 41.5428 35.9126 38.7584 40.9331 35.9359C41.2271 35.7706 41.5063 35.2994 41.5084 34.9688C41.5434 29.3599 41.5335 23.7508 41.5335 17.9939C41.1575 18.1562 40.9313 18.2539 40.4714 18.459ZM13.2947 10.9282C11.4065 11.9786 9.51833 13.029 7.37868 14.2192C8.52821 14.849 9.56052 15.2717 10.4098 15.9198C11.2646 16.5721 11.8757 16.555 12.8024 16.0137C15.9077 14.1999 19.0668 12.4691 22.255 10.7956C22.7838 10.5181 23.7046 10.4302 24.2012 10.6906C27.4667 12.4024 30.6523 14.257 33.9005 16.0011C34.3859 16.2617 35.1637 16.4159 35.6319 16.2225C36.8859 15.7046 38.0452 14.9712 39.3735 14.2523C34.1834 11.3462 29.1744 8.51478 24.1204 5.76104C23.7008 5.53239 22.881 5.65969 22.4094 5.90951C19.4128 7.49668 16.4618 9.16482 13.2947 10.9282ZM9.4906 31.2425C9.4906 27.9638 9.50764 24.685 9.47078 21.4067C9.46571 20.956 9.33599 20.3102 9.01845 20.0944C7.86282 19.3092 6.60293 18.6682 5.15918 17.8457C5.15918 23.7343 5.14237 29.3428 5.19602 34.9506C5.1997 35.3351 5.64513 35.8557 6.02953 36.0748C9.59329 38.1059 13.1853 40.0906 16.7768 42.0756C18.1691 42.8451 19.5812 43.5806 21.1384 44.4141C21.1384 43.3559 21.0171 42.5544 21.1628 41.8014C21.5014 40.0508 20.5749 39.2667 19.1035 38.5126C15.8351 36.8375 12.6691 34.9748 9.4906 33.2049C9.4906 32.5756 9.4906 32.0557 9.4906 31.2425ZM29.3301 26.4637C30.4772 27.069 31.6244 27.6743 32.9502 28.3739C32.9502 25.7286 32.9612 23.3099 32.9343 20.8916C32.9314 20.6303 32.7834 20.2492 32.5764 20.13C30.3215 18.832 28.0413 17.5752 25.548 16.1844C25.548 17.7904 25.6962 19.0962 25.5175 20.3586C25.1306 23.092 25.7095 25.2043 28.7432 26.0801C28.8831 26.1205 28.9877 26.2759 29.3301 26.4637ZM23.697 28.0997C21.1853 29.3248 18.6736 30.5499 15.8834 31.9109C18.3864 33.3218 20.5296 34.5447 22.6938 35.7314C22.9715 35.8836 23.4456 36.0011 23.6819 35.8753C26.0005 34.6411 28.288 33.3519 30.6884 32.0206C28.2991 30.687 26.0981 29.4585 23.697 28.0997ZM17.3496 26.4183C18.3303 25.8884 19.3257 25.3821 20.2836 24.8159C20.6128 24.6214 21.0827 24.2832 21.0898 24.0013C21.1528 21.4934 21.1264 18.9835 21.1264 16.2298C18.7211 17.555 16.5864 18.713 14.4781 19.9146C14.2019 20.072 13.89 20.4499 13.8847 20.7308C13.8384 23.1957 13.8579 25.6619 13.8579 28.377C15.1402 27.6616 16.144 27.1016 17.3496 26.4183Z" fill="white"/>
</svg>
