<svg width="193" height="53" viewBox="0 0 193 53" fill="none" xmlns="http://www.w3.org/2000/svg">
<path d="M109.069 49.5638H107.937V35.411H109.069V37.1303C109.929 35.9562 111.271 35.2433 112.801 35.2433C114.122 35.2433 115.233 35.7046 116.135 36.6481C117.036 37.5706 117.477 38.7238 117.477 40.1286C117.477 41.5334 117.036 42.6866 116.135 43.6301C115.233 44.5527 114.122 45.0139 112.801 45.0139C111.271 45.0139 109.929 44.301 109.069 43.1269V49.5638ZM115.254 37.4658C114.562 36.7529 113.724 36.3965 112.696 36.3965C111.669 36.3965 110.83 36.7529 110.138 37.4658C109.446 38.1787 109.111 39.0593 109.111 40.1286C109.111 41.1979 109.446 42.0785 110.138 42.7914C110.83 43.5043 111.669 43.8607 112.696 43.8607C113.724 43.8607 114.562 43.5043 115.254 42.7914C115.946 42.0785 116.282 41.1979 116.282 40.1286C116.282 39.0593 115.946 38.1787 115.254 37.4658Z" fill="white"/>
<path d="M96.3667 41.2189V35.411H97.5199V40.9253C97.5199 41.785 97.7925 42.4979 98.3586 43.064C98.9247 43.6301 99.6376 43.9027 100.476 43.9027C101.42 43.9027 102.216 43.6091 102.846 43.043C103.495 42.4559 103.81 41.7431 103.81 40.8834V35.411H104.963V44.8462H103.81V43.043C103.076 44.3639 101.86 45.0139 100.204 45.0139C99.0924 45.0139 98.1908 44.6575 97.457 43.9236C96.7231 43.1898 96.3667 42.2882 96.3667 41.2189Z" fill="white"/>
<path d="M89.1597 35.2433C90.5435 35.2433 91.6967 35.7046 92.6402 36.6481C93.5837 37.5706 94.045 38.7238 94.045 40.1286C94.045 41.5334 93.5837 42.6866 92.6402 43.6301C91.6967 44.5527 90.5435 45.0139 89.1597 45.0139C87.7549 45.0139 86.6017 44.5527 85.6582 43.6301C84.7147 42.6866 84.2534 41.5334 84.2534 40.1286C84.2534 38.7238 84.7147 37.5706 85.6582 36.6481C86.6017 35.7046 87.7549 35.2433 89.1597 35.2433ZM89.1387 43.8607C90.2081 43.8607 91.0887 43.5043 91.7806 42.7914C92.4725 42.0785 92.8289 41.1979 92.8289 40.1286C92.8289 39.0593 92.4725 38.1787 91.7806 37.4658C91.0887 36.7529 90.2081 36.3965 89.1387 36.3965C88.0904 36.3965 87.2098 36.7529 86.5179 37.4658C85.8259 38.1787 85.4695 39.0593 85.4695 40.1286C85.4695 41.1979 85.8259 42.0785 86.5179 42.7914C87.2098 43.5043 88.0904 43.8607 89.1387 43.8607Z" fill="white"/>
<path d="M79.4003 39.4367V44.8462H78.2471V35.411H79.4003V37.2352C80.1341 35.9142 81.3292 35.2433 83.0066 35.2433H83.2792V36.5223C83.1114 36.4594 82.9227 36.4384 82.713 36.4384C81.7695 36.4384 80.9938 36.7319 80.3438 37.2981C79.7148 37.8642 79.4003 38.577 79.4003 39.4367Z" fill="white"/>
<path d="M68.5435 30.5256C71.2902 30.5256 73.6385 31.8466 74.8756 34.0062L73.6804 34.4884C72.653 32.7901 70.745 31.7417 68.5435 31.7417C66.8032 31.7417 65.3565 32.3078 64.2033 33.461C63.0501 34.6142 62.4631 36.04 62.4631 37.7593C62.4631 39.4786 63.0292 40.9253 64.1614 42.0785C65.2936 43.2317 66.6774 43.7978 68.3338 43.7978C69.8435 43.7978 71.1434 43.3155 72.2547 42.372C73.3659 41.4075 73.9949 40.1914 74.1627 38.7028H67.7677V37.5077H75.5675V38.0318C75.5046 40.0237 74.7917 41.6801 73.4288 43.022C72.066 44.3639 70.3676 45.0348 68.3548 45.0348C66.321 45.0348 64.6017 44.3429 63.2389 42.9591C61.876 41.5543 61.1841 39.835 61.1841 37.7593C61.1841 35.6835 61.876 33.9642 63.2808 32.6014C64.6856 31.2175 66.4258 30.5256 68.5435 30.5256Z" fill="white"/>
<path d="M185.168 16.0281V13.3956H186.612V11.3688H189.617V13.3956H192.064V16.0281H189.617V19.942C189.617 20.571 190.107 21.0369 190.759 21.0369H192.064V23.8791H190.27C189.245 23.8791 188.383 23.5529 187.66 22.9239C186.962 22.2949 186.612 21.5028 186.612 20.5477V16.0281H185.168Z" fill="white"/>
<path d="M184.658 16.7271L181.606 17.6356C181.257 16.7038 180.372 16.0981 179.347 16.0981C177.972 16.0981 176.9 17.2163 176.9 18.6141C176.9 20.0352 177.972 21.1535 179.347 21.1535C180.372 21.1535 181.257 20.571 181.606 19.6392L184.658 20.5244C183.843 22.691 181.839 24.1354 179.347 24.1354C177.739 24.1354 176.411 23.6229 175.34 22.5746C174.291 21.5262 173.755 20.1983 173.755 18.6374C173.755 17.0765 174.291 15.7486 175.34 14.7003C176.411 13.6519 177.739 13.1161 179.347 13.1161C181.793 13.1161 183.843 14.5605 184.658 16.7271Z" fill="white"/>
<path d="M172.671 19.7324H164.866C165.216 20.8273 166.194 21.5728 167.429 21.5728C168.291 21.5728 168.967 21.2466 169.502 20.6176L172.415 21.2932C171.483 23.0405 169.619 24.1354 167.382 24.1354C165.752 24.1354 164.401 23.6229 163.306 22.5746C162.211 21.5262 161.675 20.1983 161.675 18.6374C161.675 17.0765 162.211 15.7486 163.259 14.7003C164.331 13.6519 165.659 13.1161 167.219 13.1161C168.78 13.1161 170.108 13.6519 171.157 14.7003C172.228 15.7486 172.764 17.0765 172.764 18.6374C172.764 19.0567 172.741 19.4295 172.671 19.7324ZM164.866 17.4726H169.689C169.339 16.4242 168.361 15.702 167.243 15.702C166.194 15.702 165.216 16.4242 164.866 17.4726Z" fill="white"/>
<path d="M150.33 23.8792V13.3956H153.359V14.444C154.081 13.5587 155.036 13.1161 156.224 13.1161C157.366 13.1161 158.298 13.5121 159.066 14.2809C159.835 15.0497 160.231 16.0049 160.231 17.1464V23.8792H157.203V17.9385C157.203 16.797 156.387 15.935 155.292 15.935C154.197 15.935 153.359 16.797 153.359 17.9385V23.8792H150.33Z" fill="white"/>
<path d="M138.659 23.8792V13.3956H141.688V14.444C142.41 13.5587 143.365 13.1161 144.553 13.1161C145.695 13.1161 146.626 13.5121 147.395 14.2809C148.164 15.0497 148.56 16.0049 148.56 17.1464V23.8792H145.531V17.9385C145.531 16.797 144.716 15.935 143.621 15.935C142.526 15.935 141.688 16.797 141.688 17.9385V23.8792H138.659Z" fill="white"/>
<path d="M127.586 22.5746C126.538 21.5262 126.002 20.1983 126.002 18.6374C126.002 17.0765 126.538 15.7486 127.586 14.7003C128.658 13.6519 129.985 13.1161 131.593 13.1161C133.2 13.1161 134.528 13.6519 135.6 14.7003C136.672 15.7486 137.207 17.0765 137.207 18.6374C137.207 20.1983 136.672 21.5262 135.6 22.5746C134.528 23.6229 133.2 24.1354 131.593 24.1354C129.985 24.1354 128.658 23.6229 127.586 22.5746ZM131.593 21.1535C132.991 21.1535 134.062 20.0585 134.062 18.6374C134.062 17.2163 132.991 16.0981 131.593 16.0981C130.218 16.0981 129.147 17.2163 129.147 18.6374C129.147 20.0585 130.218 21.1535 131.593 21.1535Z" fill="white"/>
<path d="M117.601 7.87427C120.886 7.87427 123.681 9.62152 125.009 12.3239L121.794 13.5121C120.956 11.9978 119.441 11.0659 117.601 11.0659C116.226 11.0659 115.085 11.5318 114.176 12.487C113.268 13.4422 112.825 14.607 112.825 16.0048C112.825 17.4259 113.268 18.5908 114.176 19.5459C115.085 20.5011 116.226 20.967 117.601 20.967C119.441 20.967 120.956 20.0351 121.794 18.5209L125.009 19.709C123.681 22.4114 120.886 24.1587 117.601 24.1587C115.248 24.1587 113.291 23.3899 111.707 21.829C110.146 20.2681 109.354 18.3345 109.354 16.0281C109.354 13.7217 110.146 11.7881 111.707 10.2272C113.291 8.66636 115.248 7.87427 117.601 7.87427Z" fill="white"/>
<path d="M107.698 23.8791H104.669V13.3956H107.698V23.8791ZM104.832 11.3688C104.483 11.0193 104.32 10.5534 104.32 10.0175C104.32 9.48172 104.483 9.03908 104.832 8.68963C105.182 8.34018 105.648 8.15381 106.184 8.15381C106.719 8.15381 107.162 8.34018 107.511 8.68963C107.861 9.03908 108.047 9.48172 108.047 10.0175C108.047 10.5534 107.861 11.0193 107.511 11.3688C107.162 11.7182 106.719 11.8813 106.184 11.8813C105.648 11.8813 105.182 11.7182 104.832 11.3688Z" fill="white"/>
<path d="M96.3945 16.0281V13.3956H97.8389V11.3688H100.844V13.3956H103.29V16.0281H100.844V19.942C100.844 20.571 101.333 21.0369 101.986 21.0369H103.29V23.8791H101.497C100.471 23.8791 99.6095 23.5529 98.8873 22.9239C98.1884 22.2949 97.8389 21.5028 97.8389 20.5477V16.0281H96.3945Z" fill="white"/>
<path d="M95.3442 23.8791H92.3157V6.98901H95.3442V23.8791Z" fill="white"/>
<path d="M80.6445 20.1284V13.3956H83.6731V19.313C83.6731 20.4545 84.4885 21.3398 85.5834 21.3398C86.6784 21.3398 87.5171 20.4545 87.5171 19.313V13.3956H90.5456V23.8791H87.5171V22.8075C86.7949 23.6928 85.8397 24.1354 84.6516 24.1354C83.51 24.1354 82.5549 23.7627 81.7861 22.9939C81.0173 22.2251 80.6445 21.2699 80.6445 20.1284Z" fill="white"/>
<path d="M64.4386 23.8791H61.1538V8.15381H64.4386L69.8668 17.7521L75.3182 8.15381H78.603V23.8791H75.3182V14.3274L70.9617 22.1551H68.7718L64.4386 14.374V23.8791Z" fill="white"/>
<path d="M0.0308691 34.9079C0.0308691 27.9821 0.00586813 21.2234 0.0725766 14.4655C0.078719 13.8434 0.501125 12.9444 1.01451 12.6501C8.41042 8.41026 15.8476 4.23903 23.3089 0.110452C23.7081 -0.110451 24.5032 0.0284693 24.9558 0.27675C31.0214 3.60387 37.0604 6.97756 43.1019 10.3469C44.2807 11.0043 45.39 11.8104 46.6265 12.3305C47.685 12.7757 48.0075 13.3386 47.9999 14.4575C47.945 22.5003 47.9499 30.5438 47.9961 38.5867C48.002 39.613 47.6801 40.1965 46.7779 40.6973C39.519 44.7268 32.2937 48.8146 25.019 52.8163C24.5193 53.0913 23.5748 53.0447 23.0559 52.7621C16.9805 49.4525 10.9453 46.0719 4.90382 42.7025C3.72504 42.0451 2.6247 41.2078 1.37883 40.7236C0.176855 40.2565 -0.0654456 39.5386 0.0135592 38.4254C0.0924593 37.3136 0.0308691 36.1923 0.0308691 34.9079ZM42.2056 18.9365C41.764 19.1883 41.35 19.52 40.8758 19.6776C39.0923 20.2704 38.6411 21.4324 38.7327 23.2367C38.9053 26.6348 38.7329 30.0485 38.8121 33.4533C38.8365 34.5014 38.4462 35.0385 37.5598 35.517C34.1802 37.3415 30.8249 39.2104 27.4909 41.1137C27.022 41.3814 26.4415 41.9054 26.3956 42.3578C26.2531 43.7611 26.3434 45.187 26.3434 46.9016C31.9991 43.7333 37.3598 40.7422 42.6963 37.7103C43.0088 37.5328 43.3056 37.0265 43.3078 36.6714C43.3451 30.6464 43.3345 24.621 43.3345 18.4369C42.9349 18.6113 42.6943 18.7162 42.2056 18.9365ZM13.3182 10.8469C11.3112 11.9753 9.30415 13.1036 7.02982 14.3822C8.25172 15.0586 9.34901 15.5127 10.2518 16.2089C11.1604 16.9096 11.8099 16.8913 12.795 16.3098C16.0957 14.3614 19.4536 12.5022 22.8425 10.7045C23.4046 10.4064 24.3833 10.312 24.9112 10.5917C28.3823 12.4305 31.7684 14.4227 35.2211 16.2962C35.737 16.5762 36.5638 16.7418 37.0615 16.5341C38.3944 15.9778 39.6266 15.19 41.0386 14.4177C35.5217 11.296 30.1975 8.25441 24.8254 5.29634C24.3793 5.05072 23.508 5.18747 23.0066 5.45582C19.8214 7.16077 16.6847 8.95269 13.3182 10.8469ZM9.27468 32.6687C9.27468 29.1467 9.29279 25.6245 9.25361 22.103C9.24822 21.6188 9.11034 20.9251 8.77281 20.6933C7.54444 19.8498 6.20524 19.1613 4.67062 18.2777C4.67062 24.6033 4.65276 30.628 4.70978 36.6519C4.71369 37.0649 5.18716 37.6241 5.59576 37.8595C9.38384 40.0413 13.2019 42.1733 17.0195 44.3056C18.4994 45.1322 20.0005 45.9223 21.6556 46.8176C21.6556 45.6808 21.5267 44.8199 21.6816 44.011C22.0415 42.1306 21.0567 41.2882 19.4927 40.4782C16.0186 38.6788 12.6532 36.6779 9.27468 34.7766C9.27468 34.1006 9.27468 33.5422 9.27468 32.6687ZM30.3629 27.5352C31.5823 28.1854 32.8016 28.8356 34.2109 29.5872C34.2109 26.7455 34.2227 24.1474 34.1941 21.5497C34.191 21.269 34.0337 20.8596 33.8136 20.7316C31.4167 19.3372 28.9931 17.9871 26.3428 16.4931C26.3428 18.2183 26.5003 19.6211 26.3104 20.9771C25.8991 23.9133 26.5145 26.1824 29.7391 27.1232C29.8878 27.1666 29.999 27.3334 30.3629 27.5352ZM24.3753 29.2927C21.7055 30.6087 19.0357 31.9246 16.0699 33.3866C18.7304 34.9022 21.0085 36.2158 23.309 37.4906C23.6041 37.6542 24.1081 37.7803 24.3593 37.6452C26.8238 36.3194 29.2553 34.9346 31.8068 33.5044C29.2671 32.0719 26.9276 30.7522 24.3753 29.2927ZM17.6284 27.4864C18.6708 26.9173 19.7288 26.3733 20.747 25.7652C21.0969 25.5562 21.5964 25.193 21.6039 24.8901C21.671 22.1961 21.6429 19.4999 21.6429 16.5419C19.0862 17.9655 16.8171 19.2094 14.5761 20.5002C14.2826 20.6692 13.951 21.0752 13.9454 21.3769C13.8961 24.0248 13.9169 26.6739 13.9169 29.5905C15.2799 28.8221 16.3469 28.2205 17.6284 27.4864Z" fill="white"/>
</svg>
